<?xml version="1.0" standalone="no"?>
<!DOCTYPE svg PUBLIC "-//W3C//DTD SVG 20010904//EN"
 "http://www.w3.org/TR/2001/REC-SVG-20010904/DTD/svg10.dtd">
<svg version="1.0" xmlns="http://www.w3.org/2000/svg"
 width="500.000000pt" height="489.000000pt" viewBox="0 0 500.000000 489.000000"
 preserveAspectRatio="xMidYMid meet">

<g transform="translate(0.000000,489.000000) scale(0.100000,-0.100000)"
fill="#000000" stroke="none">
<path d="M2513 3144 c-17 -9 -39 -31 -48 -50 -10 -22 -23 -34 -36 -34 -31 0
-67 -29 -78 -63 -9 -26 -20 -36 -60 -50 -113 -40 -238 -153 -270 -244 -8 -21
-31 -67 -52 -102 -42 -70 -79 -160 -79 -191 0 -40 26 -18 43 38 10 31 32 81
49 110 32 56 28 55 96 36 17 -5 30 2 57 30 24 26 42 36 64 36 16 0 33 5 36 10
11 17 37 11 61 -15 27 -29 48 -25 81 13 19 23 25 24 48 14 26 -12 26 -13 20
-91 -7 -76 -7 -79 22 -111 24 -26 39 -33 79 -37 62 -6 104 13 133 60 26 43 27
92 2 134 -15 24 -17 32 -7 36 16 6 36 -11 36 -30 0 -17 49 -28 63 -14 6 6 21
11 33 11 12 0 27 7 34 14 8 11 18 12 36 5 38 -14 83 -11 115 8 22 13 34 15 47
7 28 -18 90 -115 120 -188 32 -80 59 -102 48 -40 -11 54 -68 164 -121 228 -30
38 -45 65 -45 85 0 35 -66 123 -110 146 -16 8 -51 15 -77 15 -67 0 -98 18 -99
57 -2 47 -10 61 -49 77 -19 8 -35 21 -35 29 0 23 -55 68 -91 73 -21 3 -47 -2
-66 -12z m114 -61 c10 -25 9 -34 -1 -48 -12 -17 -15 -16 -49 11 -28 22 -35 34
-31 49 14 44 61 37 81 -12z m-204 -69 c9 -10 -4 -34 -19 -34 -8 0 -14 6 -14
13 0 22 19 35 33 21z m287 -19 c0 -8 -9 -15 -20 -15 -11 0 -20 7 -20 15 0 8 9
15 20 15 11 0 20 -7 20 -15z m-224 -16 c3 -6 1 -16 -5 -22 -18 -18 -13 -25 27
-30 20 -3 49 -8 63 -12 17 -4 31 -2 40 8 8 7 21 16 29 19 18 6 108 -23 144
-47 18 -12 36 -15 65 -10 49 8 79 -7 121 -59 34 -44 36 -78 5 -82 -11 -2 -60
-10 -110 -18 -81 -13 -91 -13 -102 0 -7 10 -23 14 -44 12 -27 -2 -34 1 -38 19
-15 60 -77 82 -119 43 -41 -38 -30 -77 39 -141 62 -58 77 -95 50 -122 -8 -8
-11 -7 -11 6 0 24 -25 21 -54 -5 -58 -54 -74 -59 -96 -33 -9 11 -11 35 -6 84
7 64 5 70 -19 100 -32 37 -76 42 -102 11 -25 -29 -37 -25 -68 20 -15 22 -32
40 -37 40 -5 0 -14 -14 -20 -30 -10 -31 -30 -40 -82 -37 -24 2 -31 -3 -36 -22
-15 -62 -77 -46 -66 17 16 99 206 245 320 245 49 -1 72 10 81 37 7 22 20 26
31 9z m138 -205 c11 -4 16 -19 16 -52 l0 -46 -30 29 c-47 45 -38 89 14 69z"/>
<path d="M2225 2573 c-52 -28 -85 -83 -94 -157 l-6 -51 -47 -6 c-26 -4 -53
-11 -60 -16 -7 -4 -44 -8 -83 -8 -88 0 -166 -35 -223 -101 -22 -24 -42 -44
-46 -44 -3 0 -17 23 -32 52 -39 76 -114 151 -187 184 -56 26 -72 29 -167 29
-121 0 -167 -16 -200 -70 -27 -44 -26 -94 6 -140 34 -51 28 -74 -26 -102 -138
-71 -215 -248 -160 -366 52 -111 192 -185 331 -175 56 4 87 14 153 46 84 42
199 136 225 186 19 34 30 33 70 -10 70 -74 128 -91 224 -67 47 12 67 13 97 4
55 -16 98 -14 145 9 41 20 43 20 84 2 33 -15 52 -17 92 -11 29 5 59 15 69 24
16 14 21 14 65 -10 77 -41 138 -31 198 32 40 42 50 88 31 130 -9 18 -20 33
-25 33 -15 0 -30 39 -23 64 4 16 17 29 37 35 16 6 45 23 64 37 57 44 63 33 63
-121 0 -147 8 -178 54 -209 45 -29 107 -21 172 23 54 37 61 39 79 25 11 -8 49
-29 84 -46 63 -31 65 -31 125 -19 33 7 73 19 88 27 35 18 62 18 78 -1 23 -28
79 -29 164 -3 5 2 15 -15 23 -37 17 -49 48 -83 92 -102 60 -26 136 8 181 82
27 44 23 102 -9 136 -21 23 -24 44 -26 174 -2 173 -4 181 -37 231 -37 55 -93
90 -157 100 -36 6 -45 12 -56 38 -18 43 -46 66 -95 77 -54 12 -109 -12 -147
-64 -27 -37 -30 -38 -98 -41 -97 -4 -177 -47 -234 -127 -31 -42 -41 -41 -41 5
0 17 -9 46 -20 64 l-21 34 22 45 c30 63 22 117 -25 160 -29 27 -44 33 -81 33
-25 0 -60 -7 -76 -16 -42 -21 -89 -98 -89 -145 0 -42 -20 -64 -51 -56 -12 3
-42 -1 -67 -10 -35 -11 -51 -12 -64 -4 -28 18 -100 13 -136 -9 -57 -35 -66
-22 -32 45 37 73 18 140 -50 175 -47 24 -84 25 -125 3z m131 -47 c40 -40 44
-75 15 -123 -18 -28 -25 -31 -78 -35 -72 -5 -80 -2 -98 33 -40 76 10 156 99
158 19 1 39 -10 62 -33z m631 -3 c28 -34 30 -92 6 -121 -27 -30 -137 -38 -164
-11 -34 34 -28 105 13 143 27 25 36 28 77 23 34 -4 51 -12 68 -34z m594 -79
c19 -9 37 -31 49 -60 18 -41 22 -44 57 -44 80 -1 161 -61 182 -137 6 -21 11
-102 11 -179 l0 -141 30 -38 c34 -43 36 -54 15 -95 -35 -68 -107 -80 -159 -27
l-33 32 -6 205 c-6 213 -9 235 -33 244 -37 14 -44 -3 -44 -109 0 -96 2 -106
25 -133 30 -36 31 -57 5 -99 -34 -57 -117 -61 -159 -7 -16 20 -19 48 -23 233
-5 209 -5 210 -31 245 -33 42 -34 66 -4 93 39 36 72 41 118 17z m-2144 -50
c73 -35 132 -95 169 -170 23 -47 29 -76 32 -145 5 -109 -7 -151 -68 -243 -82
-122 -178 -171 -335 -171 -102 1 -154 19 -220 76 -99 88 -104 255 -8 341 49
45 154 63 225 39 42 -14 66 -57 49 -88 -19 -36 -40 -46 -97 -44 -46 1 -59 -3
-79 -24 -31 -30 -31 -54 -4 -89 31 -39 53 -30 59 23 5 45 5 45 57 56 29 7 59
18 68 25 19 16 24 4 27 -75 3 -51 6 -60 23 -63 30 -4 98 44 127 91 57 90 46
206 -26 280 -76 80 -110 73 -119 -24 -6 -68 -10 -77 -30 -60 -8 6 -38 18 -66
27 l-51 15 0 54 c0 46 -3 56 -22 66 -43 22 -50 61 -20 99 24 30 72 40 170 36
65 -3 94 -10 139 -32z m1535 -73 l33 -29 5 -155 c5 -142 7 -157 27 -179 36
-38 36 -73 2 -108 -24 -24 -39 -30 -72 -30 -88 1 -106 42 -107 247 0 104 -3
128 -21 162 -16 32 -19 47 -12 68 19 57 94 70 145 24z m413 19 c47 -11 75 -41
75 -81 0 -49 -30 -69 -105 -69 -58 0 -68 -3 -100 -31 -30 -27 -35 -37 -35 -76
0 -36 6 -50 29 -74 27 -27 35 -29 105 -29 63 0 80 -4 96 -20 28 -28 25 -64 -9
-102 -24 -27 -36 -32 -89 -36 -113 -8 -212 50 -260 152 -28 59 -30 163 -3 221
50 112 176 173 296 145z m-1027 -33 c23 -24 24 -28 23 -179 -2 -141 0 -157 19
-180 58 -74 -22 -162 -114 -124 -51 21 -58 47 -54 211 3 131 2 142 -19 176
-13 20 -23 45 -23 56 0 20 32 55 60 66 28 12 84 -2 108 -26z m180 27 c21 -6
22 -10 16 -68 -5 -56 -3 -65 22 -101 24 -35 27 -50 28 -118 1 -74 3 -80 29
-101 86 -69 -44 -172 -139 -109 -34 22 -38 43 -38 198 -1 126 -4 144 -24 180
-24 43 -22 67 11 103 20 22 52 27 95 16z m223 -23 c40 -40 41 -98 2 -140 -26
-28 -47 -35 -99 -32 -47 2 -90 70 -79 122 18 80 117 108 176 50z m-630 -7 c23
-25 24 -32 27 -187 3 -141 6 -164 23 -185 10 -14 19 -35 19 -47 0 -28 -56 -79
-77 -71 -8 4 -21 6 -29 6 -8 0 -14 7 -14 15 0 8 4 15 9 15 15 0 42 81 35 104
-9 31 -34 56 -71 71 -24 10 -33 20 -33 38 0 34 -40 89 -73 100 -38 12 -74 2
-108 -33 -24 -23 -29 -37 -29 -75 0 -92 75 -124 173 -72 36 19 42 19 66 6 60
-34 50 -104 -20 -139 -91 -47 -201 -35 -271 28 -100 90 -107 241 -16 344 44
49 105 73 188 73 55 0 81 5 100 18 35 24 72 21 101 -9z m-715 -179 c19 -46 18
-148 -2 -188 -18 -35 -54 -68 -66 -61 -12 7 -10 248 2 279 9 22 13 24 31 15
11 -7 27 -27 35 -45z m2024 -54 c0 -53 -11 -62 -78 -68 -57 -5 -62 -4 -86 22
-49 53 -30 94 44 96 25 1 56 4 70 9 32 9 50 -12 50 -59z m-1505 29 c23 -25 25
-87 5 -101 -27 -16 -68 -10 -84 13 -46 65 27 145 79 88z"/>
<path d="M2406 1509 c-37 -29 -56 -76 -56 -139 0 -58 18 -99 56 -129 45 -35
114 -22 114 22 0 12 4 28 9 35 11 18 21 -7 21 -49 0 -28 2 -30 32 -27 28 2 34
8 38 33 l6 30 17 -31 16 -32 153 2 c148 1 153 2 163 24 13 30 68 31 89 0 13
-18 24 -21 72 -19 31 1 61 4 65 7 5 3 9 23 9 45 0 45 17 53 25 12 9 -42 20
-58 41 -58 18 0 23 12 39 88 7 35 25 26 25 -13 0 -45 17 -80 39 -80 35 0 35
-7 0 212 -6 37 -17 73 -26 79 -23 20 -47 -2 -56 -52 -20 -113 -28 -117 -48
-22 -16 74 -38 98 -64 72 -11 -11 -20 -52 -28 -128 -7 -61 -16 -112 -22 -112
-8 0 -22 40 -60 174 -18 64 -28 74 -69 69 -34 -4 -35 -6 -46 -61 -16 -78 -38
-151 -50 -166 -6 -8 -23 -10 -47 -6 -32 5 -38 10 -38 31 0 21 5 26 33 28 29 3
32 6 32 36 0 17 -5 37 -12 44 -8 8 -8 15 1 26 7 8 11 25 9 38 -3 21 -8 23 -68
23 l-65 0 -1 -70 c-2 -178 -4 -195 -17 -195 -7 0 -23 19 -35 42 -21 42 -21 42
-1 74 25 41 24 94 -2 128 -21 27 -25 27 -108 25 -47 -1 -102 2 -121 6 -28 5
-41 2 -64 -16z m135 -41 c11 -104 7 -150 -14 -147 -7 2 -24 -4 -39 -11 -40
-19 -68 8 -68 65 0 55 28 84 66 67 34 -16 34 -16 34 13 0 25 19 36 21 13z
m309 -28 c0 -5 -4 -10 -10 -10 -5 0 -10 5 -10 10 0 6 5 10 10 10 6 0 10 -4 10
-10z m-205 -30 c-5 -8 -11 -8 -17 -2 -6 6 -7 16 -3 22 5 8 11 8 17 2 6 -6 7
-16 3 -22z m389 -16 c3 -9 6 -25 6 -36 0 -25 -33 -21 -38 5 -8 38 19 64 32 31z"/>
<path d="M1712 1508 c-14 -14 -17 -264 -3 -286 4 -8 19 -12 32 -10 l24 3 0
150 c0 143 -1 150 -20 153 -11 1 -26 -3 -33 -10z"/>
<path d="M1863 1498 c-41 -46 -56 -88 -50 -146 10 -93 69 -146 142 -128 18 5
24 14 27 48 6 49 -3 66 -22 43 -7 -8 -20 -15 -30 -15 -49 0 -70 99 -29 136 26
23 22 23 48 0 29 -26 41 -11 32 39 -6 39 -7 40 -51 43 -37 2 -50 -1 -67 -20z"/>
<path d="M2024 1506 c-2 -6 -3 -75 -2 -151 l3 -140 65 0 65 0 0 35 c0 31 -3
35 -30 40 -21 4 -30 11 -30 25 0 14 9 21 30 25 l30 5 0 84 0 84 -63 3 c-43 2
-65 -1 -68 -10z"/>
</g>
</svg>
